# xmcd CD database file
#
# Track frame offsets:
#	150
#	20162
#	46900
#
# Disc length: 887 seconds
#
# Revision: 0
# Processed by: cddbd v1.5PL3 Copyright (c) Steve Scherf et al.
# Submitted via: CDex 1.50Beta6
#
DISCID=1f037503
DTITLE=Dir en grey - 脈
DYEAR=1999
DGENRE=Visual_Rock
TTITLE0=脈
TTITLE1=Ash
TTITLE2=脈 8 1／2 convert
EXTD=YEAR: 1999
EXTT0=
EXTT1=
EXTT2=
PLAYORDER=
